<?xml version="1.0" encoding="utf-8"?>
<!-- Generator: Adobe Illustrator 27.5.0, SVG Export Plug-In . SVG Version: 6.00 Build 0)  -->
<svg version="1.1" xmlns="http://www.w3.org/2000/svg" xmlns:xlink="http://www.w3.org/1999/xlink" x="0px" y="0px"
	 viewBox="0 0 2200 2200" style="enable-background:new 0 0 2200 2200;" xml:space="preserve">
<g id="background">
	<rect x="0" style="fill:#FFFFFF;" width="2200" height="2200"/>
</g>
<g id="Objects">
	<g>
		<path style="fill:#FFC200;" d="M2029.902,1352.113c-56.168,94.416-136.779,176.034-238.97,234.414
			c-151.31,86.42-322.148,106.38-478.961,68.991c0.16-3.574,0.233-7.173,0.233-10.796c0-59.767-21.605-117.483-60.836-162.487
			c-30.878-35.448-71.018-61.192-115.457-74.519c-8.991-30.375-26.002-57.974-49.646-79.972
			c-33.163-30.842-76.373-47.828-121.684-47.828c-7.333,0-14.616,0.442-21.814,1.314c-25.707-38.101-59.264-70.551-98.543-95.043
			c-5.896-3.672-11.89-7.149-17.982-10.416c-70.428-279.233,49.634-582.196,311.917-732.019
			c102.204-58.379,213.472-86.334,323.328-86.752c25.732-0.098,34.686,34.072,12.319,46.797c-0.283,0.16-0.577,0.319-0.86,0.479
			c-252.371,144.161-340.093,465.609-195.932,717.992c144.161,252.371,465.609,340.093,717.98,195.932
			c0.282-0.16,0.577-0.319,0.86-0.491C2018.172,1304.911,2043.044,1329.992,2029.902,1352.113z"/>
		<path style="fill:#B9BFC6;" d="M364.726,1843c-109.506,0-198.281-88.776-198.281-198.281s88.776-198.281,198.281-198.281
			c9.635,0,19.098,0.687,28.361,2.019c8.232-146.399,129.548-262.576,278.009-262.576c108.031,0,201.703,61.517,247.859,151.438
			c14.188-5.354,29.563-8.275,45.626-8.275c68.16,0,124.037,52.641,129.176,119.498c95.776,14.016,169.319,96.506,169.319,196.177
			c0,109.506-88.776,198.281-198.281,198.281H364.726z"/>
	</g>
</g>
</svg>
